<svg height="256" viewBox="0 0 256 256" width="256" xmlns="http://www.w3.org/2000/svg"><g fill="none" fill-rule="evenodd"><path d="m0 0h256v256h-256z" fill="#fde942"/><path d="m23.7103448 89.8546798h-17.78275859c-1.60539663 0-2.99465923.5819149-4.16783405 1.7457918-1.17317388 1.1638533-1.75975216 2.5420876-1.75975216 4.1347501 0 1.5926624.58657828 2.9708968 1.75975216 4.1347501 1.17317482 1.1638772 2.56243742 1.7457922 4.16783405 1.7457922h17.78275859c1.6054038 0 2.994664-.581915 4.1678282-1.7457922 1.1731878-1.1638533 1.759758-2.5420877 1.759758-4.1347501 0-1.5926625-.5865702-2.9708968-1.759758-4.1347501-1.1731642-1.1638769-2.5624244-1.7457918-4.1678282-1.7457918zm128.9955662-43.0926229 12.607894-12.6078697c1.129064-1.2545317 1.693584-2.6972045 1.693584-4.3280668 0-1.6308863-.56452-3.0108374-1.693584-4.1399255-1.129088-1.1290641-2.509039-1.6935841-4.139925-1.6935841-1.630863 0-3.073536.56452-4.328067 1.6935841l-12.60787 12.6078938c-1.129088 1.129064-1.693608 2.540376-1.693608 4.2339841s.56452 3.1049201 1.693608 4.2339841c1.129064 1.1290881 2.540376 1.6936081 4.233984 1.6936081s3.10492-.56452 4.233984-1.6936081zm-111.9820314 2.3651698c1.1204447 1.1204447 2.5209826 1.6806551 4.2016616 1.6806551s3.0812169-.5602104 4.2016855-1.6806551c1.1204447-1.1204686 1.6806551-2.5210065 1.6806551-4.2016855s-.5602104-3.0812169-1.6806551-4.2016616l-12.6983731-12.698373c-1.1204686-1.1204447-2.5210065-1.680679-4.2016855-1.680679-1.6806789 0-3.0812169.5602343-4.2016615 1.680679-1.1204447 1.1204446-1.680679 2.5209826-1.680679 4.2016615 0 1.680679.5602343 3.0812169 1.680679 4.2016855zm55.0113421-19.4892957c1.5926624 0 2.9708968-.5865702 4.1347501-1.759758 1.1638772-1.1731642 1.7457922-2.5624244 1.7457922-4.1678282v-17.78275859c0-1.60540374-.581915-2.99466398-1.7457922-4.16782813-1.1638533-1.17318786-2.5420877-1.75975808-4.1347501-1.75975808-1.5926625 0-2.9708968.58657022-4.1347501 1.75975808-1.1638769 1.17316415-1.7457918 2.56242439-1.7457918 4.16782813v17.78275859c0 1.6054038.5819149 2.994664 1.7457918 4.1678282 1.1638533 1.1731878 2.5420876 1.759758 4.1347501 1.759758zm54.5408983 112.234842c-1.120444-1.120444-2.520982-1.680655-4.201661-1.680655s-3.081217.560211-4.201686 1.680655c-1.120444 1.120469-1.680655 2.521007-1.680655 4.201686s.560211 3.081217 1.680655 4.201661l12.698373 12.698373c1.120469 1.120445 2.521007 1.680679 4.201686 1.680679s3.081217-.560234 4.201661-1.680679c1.120445-1.120444 1.680679-2.520982 1.680679-4.201661s-.560234-3.081217-1.680679-4.201686zm-54.77612-100.0033149c-7.448734 0-14.4317881 1.3966108-20.9494245 4.1898802-6.5176363 2.7932693-12.197206 6.6106912-17.038876 11.4523612s-8.6590919 10.5212397-11.4523612 17.038876c-2.7932694 6.5176364-4.1898802 13.5006905-4.1898802 20.9494245s1.3966108 14.431788 4.1898802 20.949424c2.7932693 6.517637 6.6106912 12.197207 11.4523612 17.038876 4.84167 4.84167 10.5212397 8.659092 17.038876 11.452362 6.5176364 2.793269 13.5006905 4.18988 20.9494245 4.18988s14.431788-1.396611 20.949424-4.18988c6.517637-2.79327 12.197207-6.610692 17.038876-11.452362 4.84167-4.841669 8.659092-10.521239 11.452362-17.038876 2.793269-6.517636 4.18988-13.50069 4.18988-20.949424s-1.396611-14.4317881-4.18988-20.9494245c-2.79327-6.5176363-6.610692-12.197206-11.452362-17.038876-4.841669-4.84167-10.521239-8.6590919-17.038876-11.4523612-6.517636-2.7932694-13.50069-4.1898802-20.949424-4.1898802zm0 95.4999999c-5.7321681 0-11.1527077-1.090328-16.2618104-3.271057-5.1090788-2.180705-9.5638934-5.171357-13.3645636-8.972027-3.8006701-3.80067-6.7913218-8.255485-8.9720267-13.364564-2.1807289-5.109102-3.2710574-10.529642-3.2710574-16.26181 0-5.7321681 1.0903285-11.1527077 3.2710574-16.2618104 2.1807049-5.1090788 5.1713566-9.5638934 8.9720267-13.3645636 3.8006702-3.8006701 8.2554848-6.7913218 13.3645636-8.9720267 5.1091027-2.1807289 10.5296423-3.2710574 16.2618104-3.2710574 5.732168 0 11.152708 1.0903285 16.26181 3.2710574 5.109079 2.1807049 9.563894 5.1713566 13.364564 8.9720267 3.80067 3.8006702 6.791322 8.2554848 8.972027 13.3645636 2.180729 5.1091027 3.271057 10.5296423 3.271057 16.2618104 0 5.732168-1.090328 11.152708-3.271057 16.26181-2.180705 5.109079-5.171357 9.563894-8.972027 13.364564s-8.255485 6.791322-13.364564 8.972027c-5.109102 2.180729-10.529642 3.271057-16.26181 3.271057zm-51.0901619.75272-12.6078573 12.607857c-1.1290629 1.254531-1.6936064 2.697202-1.6936064 4.328087s.5645435 3.010834 1.6936064 4.139897 2.5090127 1.693607 4.1398974 1.693607c1.6308848 0 3.0735562-.564544 4.3280866-1.693607l12.6078573-12.607857c1.129063-1.129087 1.6936065-2.540398 1.6936065-4.234004 0-1.693607-.5645435-3.104917-1.6936065-4.23398-1.1290629-1.129063-2.5403735-1.693607-4.2339799-1.693607-1.6936065 0-3.1049171.564544-4.2340041 1.693607zm140.6625759-48.2674982h-17.782759c-1.605404 0-2.994664.5819149-4.167828 1.7457918-1.173188 1.1638533-1.759758 2.5420876-1.759758 4.1347501 0 1.5926624.58657 2.9708968 1.759758 4.1347501 1.173164 1.1638772 2.562424 1.7457922 4.167828 1.7457922h17.782759c1.605404 0 2.994664-.581915 4.167828-1.7457922 1.173188-1.1638533 1.759758-2.5420877 1.759758-4.1347501 0-1.5926625-.58657-2.9708968-1.759758-4.1347501-1.173164-1.1638769-2.562424-1.7457918-4.167828-1.7457918zm-89.3371923 71.5073892c-1.5926625 0-2.9708968.58657-4.1347501 1.759758-1.1638769 1.173164-1.7457918 2.562424-1.7457918 4.167828v17.782759c0 1.605396.5819149 2.994659 1.7457918 4.167834 1.1638533 1.173174 2.5420876 1.759752 4.1347501 1.759752 1.5926624 0 2.9708968-.586578 4.1347501-1.759752 1.1638772-1.173175 1.7457922-2.562438 1.7457922-4.167834v-17.782759c0-1.605404-.581915-2.994664-1.7457922-4.167828-1.1638533-1.173188-2.5420877-1.759758-4.1347501-1.759758z" fill="#fafafa" transform="translate(33 33)"/></g></svg>